<svg width="512" height="512" viewBox="0 0 512 512" xmlns="http://www.w3.org/2000/svg" role="img" aria-label="cosmos app icon white">
  <defs>
    <radialGradient id="space" cx="0.5" cy="0.4" r="0.78">
      <stop offset="0" stop-color="#241f54"/>
      <stop offset="1" stop-color="#0b0a1b"/>
    </radialGradient>
  </defs>
  <rect x="0" y="0" width="512" height="512" rx="114" fill="url(#space)"/>
  <g transform="translate(256,256) scale(2.5)" fill="#ffffff">
    <path d="M 0.00 -60.00 Q 9.55 -47.99 9.18 -22.17 Q 27.18 -40.68 42.43 -42.43 Q 40.68 -27.18 22.17 -9.18 Q 47.99 -9.55 60.00 0.00 Q 47.99 9.55 22.17 9.18 Q 40.68 27.18 42.43 42.43 Q 27.18 40.68 9.18 22.17 Q 9.55 47.99 0.00 60.00 Q -9.55 47.99 -9.18 22.17 Q -27.18 40.68 -42.43 42.43 Q -40.68 27.18 -22.17 9.18 Q -47.99 9.55 -60.00 0.00 Q -47.99 -9.55 -22.17 -9.18 Q -40.68 -27.18 -42.43 -42.43 Q -27.18 -40.68 -9.18 -22.17 Q -9.55 -47.99 0.00 -60.00 Z"/>
    <g transform="translate(55.2,-55.2)"><path d="M 0.0 -10.0 Q 1.4 -3.4 2.3 -2.3 Q 3.4 -1.4 10.0 0.0 Q 3.4 1.4 2.3 2.3 Q 1.4 3.4 0.0 10.0 Q -1.4 3.4 -2.3 2.3 Q -3.4 1.4 -10.0 0.0 Q -3.4 -1.4 -2.3 -2.3 Q -1.4 -3.4 0.0 -10.0 Z"/></g>
    <g transform="translate(-55.2,55.2)"><path d="M 0.0 -6.0 Q 0.8 -2.0 1.4 -1.4 Q 2.0 -0.8 6.0 0.0 Q 2.0 0.8 1.4 1.4 Q 0.8 2.0 0.0 6.0 Q -0.8 2.0 -1.4 1.4 Q -2.0 0.8 -6.0 0.0 Q -2.0 -0.8 -1.4 -1.4 Q -0.8 -2.0 0.0 -6.0 Z"/></g>
  </g>
</svg>
